<svg t="1690992954930" class="icon" viewBox="0 0 1373 1024" version="1.1" xmlns="http://www.w3.org/2000/svg" p-id="7413" width="200" height="200"><path d="M698.018909 384.372364h32.907636v-13.358546h-80.151272v13.358546h33.885091v40.820363h13.358545v-40.820363z m150.574546-249.250909L970.24 0v135.144727h0.116364v358.586182H397.288727V0.302545l151.691637 134.842182h299.613091z m-29.952 201.960727a50.571636 50.571636 0 1 0 0-101.12 50.571636 50.571636 0 0 0 0 101.12z m-269.661091 0a50.571636 50.571636 0 1 0 0-101.12 50.571636 50.571636 0 0 0 0 101.12z m0.558545-24.203637a25.274182 25.274182 0 1 1 0-50.548363 25.274182 25.274182 0 0 1 0 50.548363z m269.661091 0a25.274182 25.274182 0 1 1 0-50.548363 25.274182 25.274182 0 0 1 0 50.548363zM68.747636 471.924364h300.986182v50.315636h631.854546v-32.069818l300.450909-15.243637a46.545455 46.545455 0 0 1 48.104727 55.063273l-83.106909 443.322182a46.545455 46.545455 0 0 1-45.754182 37.957818H152.436364a46.545455 46.545455 0 0 1-45.754182-37.957818L23.016727 527.057455a46.545455 46.545455 0 0 1 45.730909-55.133091z m129.163637 107.613091a11.636364 11.636364 0 0 0-9.448728 13.498181l53.434182 303.010909a11.636364 11.636364 0 0 0 13.498182 9.425455l10.263273-1.815273a11.636364 11.636364 0 0 0 9.448727-13.498182L221.672727 587.170909a11.636364 11.636364 0 0 0-13.498182-9.425454l-10.263272 1.815272z m168.541091 0a11.636364 11.636364 0 0 0-9.425455 13.498181l53.410909 303.010909a11.636364 11.636364 0 0 0 13.498182 9.425455l10.263273-1.815273a11.636364 11.636364 0 0 0 9.448727-13.498182l-53.434182-303.010909a11.636364 11.636364 0 0 0-13.498182-9.425454l-10.24 1.815273z m203.357091-1.349819a11.636364 11.636364 0 0 0-10.589091 12.590546l26.810181 306.501818a11.636364 11.636364 0 0 0 12.613819 10.589091l10.402909-0.907636a11.636364 11.636364 0 0 0 10.565818-12.590546l-26.810182-306.525091a11.636364 11.636364 0 0 0-12.613818-10.589091l-10.379636 0.930909z m210.455272-0.628363l-10.426182-0.721455a11.636364 11.636364 0 0 0-12.404363 10.798546l-21.480727 306.944a11.636364 11.636364 0 0 0 10.798545 12.404363l10.402909 0.744728a11.636364 11.636364 0 0 0 12.427636-10.798546l21.457455-306.967273a11.636364 11.636364 0 0 0-10.775273-12.404363z m188.485818 3.258182l-10.24-1.978182a11.636364 11.636364 0 0 0-13.66109 9.216l-58.693819 302.033454a11.636364 11.636364 0 0 0 9.192728 13.637818l10.24 1.978182a11.636364 11.636364 0 0 0 13.661091-9.192727l58.693818-302.033455a11.636364 11.636364 0 0 0-9.192728-13.637818z m197.725091 2.443636l-10.123636-2.513455a11.636364 11.636364 0 0 0-14.103273 8.471273l-74.449454 298.542546a11.636364 11.636364 0 0 0 8.471272 14.103272l10.123637 2.536728a11.636364 11.636364 0 0 0 14.126545-8.471273l74.426182-298.565818a11.636364 11.636364 0 0 0-8.471273-14.103273z" fill="#4A4A4A" p-id="7414"></path></svg>